<svg width="568" height="586" viewBox="0 0 568 586" fill="none" xmlns="http://www.w3.org/2000/svg">
<g clip-path="url(#clip0_257_887)">
<path d="M362.279 131.36H332.057V404.157C332.057 408.437 331.261 412.675 329.714 416.63C328.167 420.584 325.9 424.177 323.041 427.203C320.182 430.23 316.789 432.631 313.054 434.269C309.319 435.906 305.316 436.75 301.273 436.75H70.2144V437.061C70.2143 441.341 71.0106 445.58 72.5576 449.534C74.1046 453.488 76.3722 457.081 79.2307 460.108C82.0893 463.134 85.4829 465.535 89.2177 467.173C92.9526 468.811 96.9556 469.654 100.998 469.654H362.279C366.322 469.654 370.325 468.811 374.06 467.173C377.795 465.535 381.188 463.134 384.047 460.108C386.905 457.081 389.173 453.488 390.72 449.534C392.267 445.58 393.063 441.341 393.063 437.061V163.952C393.063 155.308 389.82 147.018 384.047 140.906C378.274 134.794 370.444 131.36 362.279 131.36Z" fill="#F2F2F2"/>
<path d="M505.545 564.877C506.08 564.903 506.61 564.754 507.063 564.451C507.515 564.147 507.869 563.704 508.075 563.181C508.282 562.658 508.332 562.08 508.218 561.526C508.104 560.972 507.832 560.468 507.438 560.083L507.26 559.33C507.283 559.269 507.307 559.209 507.331 559.149C507.87 557.801 508.773 556.652 509.927 555.846C511.081 555.04 512.434 554.612 513.816 554.618C515.199 554.623 516.549 555.061 517.697 555.876C518.845 556.692 519.741 557.848 520.27 559.2C522.386 564.596 525.081 570.002 525.744 575.708C526.036 578.23 525.913 580.787 525.38 583.265C530.351 571.785 532.932 559.307 532.948 546.679C532.949 543.51 532.783 540.343 532.45 537.194C532.175 534.612 531.793 532.049 531.305 529.504C528.641 515.694 522.921 502.751 514.615 491.737C510.595 489.415 507.343 485.843 505.299 481.505C504.559 479.945 504.036 478.28 503.746 476.561C504.199 476.624 505.456 469.312 505.114 468.863C505.746 467.848 506.877 467.343 507.567 466.352C511 461.425 515.729 462.285 518.198 468.981C523.473 471.8 523.524 476.474 520.287 480.969C518.228 483.829 517.946 487.699 516.139 490.761C516.325 491.013 516.518 491.257 516.704 491.509C520.102 496.134 523.063 501.101 525.545 506.339C524.941 500.471 525.662 494.536 527.647 489.022C529.66 483.882 533.431 479.553 536.753 475.11C537.631 473.917 538.824 473.026 540.181 472.55C541.538 472.074 542.997 472.035 544.375 472.437C545.753 472.839 546.987 473.665 547.922 474.809C548.856 475.954 549.45 477.366 549.626 478.868C549.633 478.933 549.64 478.999 549.646 479.064C549.153 479.359 548.67 479.672 548.197 480.003C547.604 480.423 547.144 481.022 546.878 481.724C546.612 482.425 546.552 483.195 546.706 483.933C546.861 484.671 547.222 485.343 547.743 485.859C548.264 486.376 548.92 486.714 549.626 486.829L549.698 486.841C549.522 488.724 549.212 490.589 548.769 492.422C553.03 509.868 543.831 516.223 530.696 516.508C530.406 516.665 530.123 516.823 529.833 516.973C532.327 524.456 533.892 532.251 534.487 540.161C534.824 544.828 534.804 549.516 534.428 554.18L534.45 554.015C535.402 548.829 538.015 544.15 541.847 540.767C547.54 535.816 555.583 533.993 561.724 530.013C562.377 529.57 563.136 529.333 563.911 529.331C564.687 529.329 565.447 529.562 566.102 530.002C566.756 530.442 567.278 531.072 567.606 531.816C567.934 532.56 568.055 533.388 567.953 534.202L567.927 534.376C567.012 534.771 566.121 535.226 565.259 535.738C564.765 536.032 564.282 536.345 563.81 536.676C563.216 537.096 562.756 537.696 562.49 538.397C562.224 539.099 562.164 539.869 562.319 540.607C562.473 541.344 562.835 542.016 563.356 542.533C563.877 543.049 564.533 543.388 565.238 543.503L565.311 543.514C565.363 543.522 565.407 543.53 565.459 543.538C563.895 547.493 561.7 551.132 558.969 554.298C556.305 569.528 544.862 570.973 532.621 566.538H532.614C531.271 572.717 529.325 578.731 526.807 584.485H506.065C505.991 584.241 505.924 583.989 505.857 583.745C507.777 583.872 509.704 583.751 511.596 583.383C510.057 581.383 508.519 579.368 506.98 577.369C506.945 577.332 506.913 577.292 506.883 577.251C506.102 576.228 505.314 575.212 504.534 574.189L504.533 574.188C504.492 571.051 504.832 567.921 505.545 564.877Z" fill="#F2F2F2"/>
<path d="M277.087 94.252C277.844 95.4668 278.842 96.4928 280.01 97.2593C281.179 98.0258 282.491 98.5143 283.855 98.6912C285.22 98.868 286.605 98.7289 287.913 98.2835C289.222 97.8381 290.424 97.097 291.436 96.1115L334.56 116.71L342.874 105.482L291.486 81.4131C289.792 79.7336 287.576 78.7701 285.256 78.7053C282.936 78.6404 280.675 79.4787 278.9 81.0613C277.125 82.6438 275.96 84.8607 275.626 87.2919C275.292 89.723 275.812 92.1995 277.087 94.252Z" fill="#A0616A"/>
<path d="M462.157 107.097L466.434 132.758C466.634 133.955 466.595 135.183 466.319 136.363C466.044 137.543 465.539 138.649 464.836 139.611C464.133 140.572 463.248 141.367 462.238 141.945C461.227 142.522 460.114 142.87 458.97 142.965L386.294 149.016L300.866 108.537L311.069 88.0302L385.228 112.894L462.157 107.097Z" fill="#F47458"/>
<path d="M292.065 88.7063H30.7839C13.7824 88.7063 0 103.298 0 121.299V394.408C0 412.408 13.7824 427 30.7839 427H292.065C309.066 427 322.849 412.408 322.849 394.408V121.299C322.849 103.298 309.066 88.7063 292.065 88.7063Z" fill="#F2F2F2"/>
<path d="M30.7842 95.4088C27.573 95.4088 24.3932 96.0785 21.4264 97.3795C18.4596 98.6806 15.7639 100.588 13.4932 102.992C11.2225 105.396 9.4213 108.25 8.19242 111.391C6.96353 114.532 6.33105 117.899 6.33105 121.299V394.408C6.33105 401.274 8.90735 407.859 13.4932 412.715C18.0791 417.57 24.2988 420.298 30.7842 420.298H197.54C213.165 420.298 228.636 417.039 243.071 410.709C257.506 404.378 270.622 395.1 281.67 383.402C292.718 371.705 301.482 357.819 307.461 342.535C313.441 327.252 316.518 310.872 316.518 294.33V121.299C316.518 117.899 315.885 114.532 314.657 111.391C313.428 108.25 311.626 105.396 309.356 102.992C307.085 100.588 304.389 98.6806 301.423 97.3795C298.456 96.0785 295.276 95.4088 292.065 95.4088H30.7842Z" fill="white"/>
<path d="M234.465 178.293H87.8131C86.4674 178.293 85.1769 177.727 84.2254 176.719C83.2738 175.712 82.7393 174.346 82.7393 172.921C82.7393 171.496 83.2738 170.13 84.2254 169.122C85.1769 168.115 86.4674 167.549 87.8131 167.549H234.465C235.81 167.549 237.101 168.115 238.052 169.122C239.004 170.13 239.539 171.496 239.539 172.921C239.539 174.346 239.004 175.712 238.052 176.719C237.101 177.727 235.81 178.293 234.465 178.293Z" fill="#F2F2F2"/>
<path d="M234.465 292.849H87.8131C86.4674 292.849 85.1769 292.283 84.2254 291.275C83.2738 290.268 82.7393 288.901 82.7393 287.477C82.7393 286.052 83.2738 284.686 84.2254 283.678C85.1769 282.671 86.4674 282.105 87.8131 282.105H234.465C235.81 282.105 237.101 282.671 238.052 283.678C239.004 284.686 239.539 286.052 239.539 287.477C239.539 288.901 239.004 290.268 238.052 291.275C237.101 292.283 235.81 292.849 234.465 292.849Z" fill="#F2F2F2"/>
<path d="M294.017 235.608H28.2609C26.9152 235.608 25.6246 235.042 24.6731 234.035C23.7216 233.027 23.187 231.661 23.187 230.236C23.187 228.812 23.7216 227.445 24.6731 226.438C25.6246 225.43 26.9152 224.864 28.2609 224.864H294.017C295.362 224.864 296.653 225.43 297.604 226.438C298.556 227.445 299.09 228.812 299.09 230.236C299.09 231.661 298.556 233.027 297.604 234.035C296.653 235.042 295.362 235.608 294.017 235.608Z" fill="#F2F2F2"/>
<path d="M452.975 220.2L426.501 279.915L528.343 268.994L507.084 211.669L452.975 220.2Z" fill="#A0616A"/>
<path d="M476.652 563.42L466.996 563.334L462.722 522.982L476.972 523.11L476.652 563.42Z" fill="#A0616A"/>
<path d="M445.723 579.676C445.715 580.888 446.16 582.054 446.963 582.918C447.765 583.783 448.859 584.275 450.003 584.287L469.201 584.456L472.562 577.244L473.797 584.493L481.04 584.563L479.211 558.706L476.691 558.529L466.411 557.779L463.095 557.543L463.037 564.859L447.615 575.934C447.037 576.349 446.563 576.907 446.234 577.558C445.904 578.21 445.729 578.937 445.723 579.676Z" fill="#2F2E41"/>
<path d="M369.794 563.466L360.588 560.379L367.7 520.48L381.287 525.034L369.794 563.466Z" fill="#A0616A"/>
<path d="M335.719 569.384C335.375 570.54 335.478 571.793 336.005 572.869C336.532 573.944 337.44 574.755 338.531 575.122L356.835 581.256L362.049 575.408L361.217 582.721L368.122 585.041L373.549 559.757L371.189 558.803L361.571 554.888L358.466 553.632L356.381 560.607L338.566 566.395C337.899 566.612 337.291 566.998 336.795 567.518C336.299 568.039 335.93 568.679 335.719 569.384Z" fill="#2F2E41"/>
<path d="M523.704 252.201L431.105 270.166C431.105 270.166 416.253 281.928 420.226 286.141C424.199 290.353 424.815 289.701 422.205 292.465C419.595 295.228 413.951 298.923 413.895 301.341C413.84 303.759 372.402 412.221 372.402 412.221C372.402 412.221 377.006 409.784 373.553 413.44C370.1 417.096 370.1 420.117 370.1 420.117L353.985 535.308L380.156 536.939L405.782 431.922L462.943 333.813C462.943 333.813 468.614 421.301 468.852 427.12C469.09 432.939 472.543 425.627 469.09 432.939C465.637 440.251 463.335 435.376 465.637 440.251C467.939 445.126 457.344 544.369 457.344 544.369H481.232L532.465 338.666C532.465 338.666 550.693 279.858 523.704 252.201Z" fill="#2F2E41"/>
<path d="M496.426 87.6651L459.333 83.5846L449.723 96.7942L438.528 103.107C433.79 105.779 429.88 109.839 427.264 114.801C424.648 119.764 423.437 125.419 423.777 131.091L436.861 211.669C436.861 211.669 425.809 238.016 433.407 244.573C441.006 251.131 427.533 267.371 443.767 259.197C460.001 251.024 530.096 260.416 530.096 260.416L515.132 215.325L526.311 171.017L527.541 133.865C527.771 126.923 525.825 120.095 522.007 114.446C518.188 108.796 512.712 104.643 506.431 102.634L504.868 102.134L496.426 87.6651Z" fill="#F47458"/>
<path d="M547.492 57.5585C547.735 68.6278 543.827 79.346 538.214 88.7603C536.547 83.2644 533.548 78.2624 530.422 73.4941C531.998 83.8093 530.319 94.3869 525.645 103.59C525.48 103.715 525.309 103.831 525.133 103.937C520.558 106.851 514.758 108.031 509.808 105.927C520.034 94.2559 521.336 74.9189 512.762 61.8281C510.335 58.1135 507.196 54.8283 505.692 50.601C503.318 43.8562 505.6 36.43 507.04 29.3979C508.386 22.8531 508.621 15.0647 504.474 10.2681C504.917 9.59784 505.52 9.06427 506.222 8.72212C506.924 8.37998 507.699 8.24155 508.468 8.32102C511.025 8.70343 512.887 11.0565 514.072 13.4801C515.257 15.9036 516.039 18.5896 517.691 20.6829C520.751 24.6009 525.961 25.5273 530.351 27.5922C540.984 32.6066 547.237 45.2414 547.492 57.5585Z" fill="#2F2E41"/>
<path d="M273.549 584.55C273.548 584.74 273.583 584.929 273.652 585.105C273.721 585.282 273.822 585.442 273.949 585.577C274.076 585.711 274.227 585.818 274.394 585.891C274.56 585.963 274.739 586.001 274.919 586H566.469C566.832 586 567.181 585.847 567.437 585.575C567.694 585.303 567.839 584.934 567.839 584.55C567.839 584.165 567.694 583.796 567.437 583.524C567.181 583.252 566.832 583.1 566.469 583.1H274.919C274.739 583.099 274.56 583.136 274.394 583.209C274.227 583.281 274.076 583.388 273.949 583.523C273.822 583.658 273.721 583.818 273.652 583.994C273.583 584.17 273.548 584.359 273.549 584.55Z" fill="#CCCCCC"/>
<path d="M549.787 314.112C555.509 314.112 560.147 309.201 560.147 303.144C560.147 297.086 555.509 292.176 549.787 292.176C544.066 292.176 539.428 297.086 539.428 303.144C539.428 309.201 544.066 314.112 549.787 314.112Z" fill="#F47458"/>
<path d="M457.988 51.2295C458.596 48.9779 454.408 62.7416 456.429 62.9901C465.633 64.1081 478.269 69.9282 484.68 72.6435C484.968 72.6079 485.257 72.5725 485.537 72.5281C486.225 72.4482 486.896 72.3329 487.558 72.1998C502.486 69.2095 508.226 44.9317 508.226 44.7099C508.226 43.6185 505.752 13.6421 501.855 13.1985C500.831 13.0809 499.802 13.0217 498.772 13.021H489.101C487.1 12.5644 485.071 12.2531 483.03 12.0893H483.013C463.542 10.5187 448.19 23.0833 449.625 38.3721C449.634 38.3898 449.651 38.4076 449.659 38.4254C450.075 39.082 450.44 39.7032 450.763 40.2977C451.077 40.8567 451.34 41.389 451.57 41.8948C453.344 45.7991 448.782 50.7119 451.807 51.6289C455.83 52.8485 441.226 92.9343 457.15 92.9343C449.405 95.2659 456.312 57.4409 457.988 51.2295Z" fill="#2F2E41"/>
<path d="M475.369 74.7502C488.016 74.7502 498.268 63.8958 498.268 50.5063C498.268 37.1168 488.016 26.2625 475.369 26.2625C462.723 26.2625 452.471 37.1168 452.471 50.5063C452.471 63.8958 462.723 74.7502 475.369 74.7502Z" fill="#A0616A"/>
<path d="M449.625 39.6941C450.007 39.9071 450.381 40.1023 450.763 40.2975C451.162 40.5016 451.561 40.7057 451.96 40.892C459.628 44.5745 465.869 44.9826 469.656 39.6941C469.757 36.9114 470.348 34.1731 471.397 31.6194C471.211 34.4732 471.922 37.3119 473.417 39.6941H481.043C488.897 45.2133 492.93 45.7901 487.479 63.9094C485.959 68.9584 479.915 98.338 482.293 102.695C482.981 102.615 490.298 70.4352 490.96 70.3021C505.888 67.3118 515.373 41.2736 514.158 39.8006C514.164 35.6119 513.255 31.4785 511.501 27.724C509.282 22.9672 505.822 18.9828 501.532 16.2419C498.975 14.929 496.308 13.8686 493.567 13.0741C493.499 13.0564 493.44 13.0386 493.372 13.0209C492.531 12.7813 491.674 12.5595 490.816 12.3731C489.044 11.977 487.252 11.6896 485.449 11.5124C485.322 11.5035 485.195 11.4946 485.076 11.4946C484.356 11.4964 483.65 11.7017 483.03 12.0892C483.021 12.0892 483.021 12.098 483.013 12.098C482.57 12.3721 482.183 12.7371 481.875 13.1717C481.332 13.9028 481.039 14.8064 481.043 15.7361H472.551C472.237 15.7361 471.923 15.7449 471.609 15.7627C465.942 15.9677 460.551 18.4044 456.491 22.596C452.431 26.7875 449.995 32.4322 449.659 38.4252C449.633 38.8512 449.625 39.2682 449.625 39.6941Z" fill="#2F2E41"/>
<path d="M499.691 31.944C508.023 31.944 514.777 24.7931 514.777 15.972C514.777 7.15091 508.023 0 499.691 0C491.36 0 484.605 7.15091 484.605 15.972C484.605 24.7931 491.36 31.944 499.691 31.944Z" fill="#2F2E41"/>
<path d="M549.904 307.667C550.64 306.437 551.115 305.053 551.297 303.611C551.478 302.168 551.361 300.701 550.954 299.31C550.548 297.92 549.86 296.64 548.94 295.558C548.02 294.477 546.889 293.62 545.626 293.047L545.7 242.958L532.619 239.529L532.942 299.022C532.189 301.346 532.267 303.881 533.162 306.148C534.056 308.415 535.705 310.255 537.796 311.321C539.887 312.387 542.274 312.603 544.506 311.93C546.737 311.256 548.658 309.739 549.904 307.667Z" fill="#A0616A"/>
<path d="M485.127 123.668L505.482 109.022C506.432 108.338 507.506 107.873 508.636 107.655C509.765 107.437 510.926 107.472 512.042 107.757C513.158 108.042 514.206 108.57 515.117 109.309C516.029 110.048 516.785 110.981 517.336 112.047L552.332 179.756L552.466 278.847L530.617 277.397L521.648 195.588L485.127 123.668Z" fill="#F47458"/>
<path d="M328.793 348.393H111.244C106.512 348.393 101.974 350.383 98.6284 353.926C95.2825 357.468 93.4028 362.273 93.4028 367.283C93.4028 372.293 95.2825 377.097 98.6284 380.64C101.974 384.182 106.512 386.172 111.244 386.172H328.793C333.525 386.172 338.063 384.182 341.409 380.64C344.755 377.097 346.635 372.293 346.635 367.283C346.635 362.273 344.755 357.468 341.409 353.926C338.063 350.383 333.525 348.393 328.793 348.393Z" fill="white"/>
<path d="M328.793 387.391H111.244C106.207 387.391 101.376 385.272 97.8147 381.501C94.2529 377.73 92.252 372.616 92.252 367.283C92.252 361.95 94.2529 356.835 97.8147 353.064C101.376 349.293 106.207 347.175 111.244 347.175H328.793C333.83 347.175 338.661 349.293 342.223 353.064C345.785 356.835 347.786 361.95 347.786 367.283C347.786 372.616 345.785 377.73 342.223 381.501C338.661 385.272 333.83 387.391 328.793 387.391ZM111.244 349.612C106.818 349.612 102.573 351.474 99.4425 354.788C96.3125 358.102 94.5541 362.596 94.5541 367.283C94.5541 371.969 96.3125 376.464 99.4425 379.778C102.573 383.092 106.818 384.954 111.244 384.954H328.793C333.22 384.954 337.465 383.092 340.595 379.778C343.725 376.464 345.484 371.969 345.484 367.283C345.484 362.596 343.725 358.102 340.595 354.788C337.465 351.474 333.22 349.612 328.793 349.612H111.244Z" fill="#F47458"/>
<path d="M341.621 430.828H245.616C244.27 430.828 242.98 430.262 242.028 429.255C241.077 428.247 240.542 426.881 240.542 425.456C240.542 424.031 241.077 422.665 242.028 421.658C242.98 420.65 244.27 420.084 245.616 420.084H341.621C342.967 420.084 344.257 420.65 345.209 421.658C346.16 422.665 346.695 424.031 346.695 425.456C346.695 426.881 346.16 428.247 345.209 429.255C344.257 430.262 342.967 430.828 341.621 430.828Z" fill="#F47458"/>
</g>
<defs>
<clipPath id="clip0_257_887">
<rect width="568" height="586" fill="white"/>
</clipPath>
</defs>
</svg>
